<svg width="100%" height="100%" viewBox="0 0 724 267" version="1.1" xmlns="http://www.w3.org/2000/svg" xml:space="preserve" style="fill-rule:evenodd;clip-rule:evenodd;stroke-linecap:round;stroke-linejoin:round;stroke-miterlimit:1.5;"><path d="M126,66c0.479,38.194 -0.081,60.389 1.5,79.5c3.775,45.646 51.377,51.131 68.25,51.75c-0.036,-6.074 -0.762,-41.188 -0.75,-69.75c0.021,-50.096 -47.622,-60.069 -69,-61.5Z" style="fill:#1168bc;stroke:#000;stroke-width:0.75px;"/><path d="M142.559,266.25c0,0 12.39,-0.018 22.441,-7.616c17.31,-13.085 23.861,-33.634 23.861,-33.634c0,-0 11.427,32.805 30.066,37.229c15.317,3.636 56.661,4.021 56.661,4.021c-0.976,0.46 90.367,-11.054 91.162,-96.012c0.801,-85.631 0,-103.488 0,-103.488c0,0 -69.088,-2.117 -69.714,68.25c-0.299,33.573 -24.797,61.447 -57.036,62.25c-39.551,0.986 -110.965,0 -110.965,0c-0,0 -59.947,-8.876 -59.631,-56.991c0.347,-52.676 -20.192,-75.43 -69.404,-73.509c0,-0 -0.096,73.546 0,102.695c0.096,29.148 17.667,88.719 95.383,96.805" style="fill:#262626;stroke:#000;stroke-width:0.75px;"/><path d="M520.302,0l-70.302,0c0,0 -59.043,-0.131 -59.25,49.838c-0.207,49.969 0,216.412 0,216.412c0,0 64.984,-11.048 66.75,-48.75c7.582,39.687 41.982,49.488 67.5,48.763c25.518,-0.726 87.119,-0.013 87.119,-0.013c-0,0 112.228,-5.795 111.631,-93.75c-0.597,-87.955 -58.936,-106.028 -88.602,-106.5c-29.667,-0.472 -89.984,-0.175 -110.148,0c-20.164,0.175 -62.172,13.593 -63.751,39c-1.579,25.407 -0.144,-52.5 -0.144,-52.5c-0,0 -0.514,-40.445 59.197,-52.5Zm-59.625,135l161.823,-1.866c0,-0 28.899,1.094 30,29.164c1.101,28.069 -9.208,32.346 -30,32.702c-20.792,0.356 -105,0 -105,0c0,0 -51.455,4.032 -56.823,-60Z" style="fill:#262626;stroke:#000;stroke-width:0.75px;"/></svg>